<svg width="77" height="76" viewBox="0 0 77 76" fill="none" xmlns="http://www.w3.org/2000/svg">
<g id="ChartPieSlice">
<path id="Vector" d="M38.5 38V9.5" stroke="black" stroke-width="2" stroke-linecap="round" stroke-linejoin="round"/>
<path id="Vector_2" d="M63.1818 23.75L13.8184 52.25" stroke="black" stroke-width="2" stroke-linecap="round" stroke-linejoin="round"/>
<path id="Vector_3" d="M10.4753 43.2103C9.2413 36.5324 10.4285 29.6334 13.8237 23.7521C17.2189 17.8709 22.5996 13.3927 28.9996 11.1218V32.5153L10.4753 43.2103Z" stroke="black" stroke-width="2" stroke-linecap="round" stroke-linejoin="round"/>
<path id="Vector_4" d="M38.4999 9.5C43.4931 9.50092 48.3985 10.8137 52.7248 13.3068C57.0511 15.8 60.6464 19.386 63.1508 23.7058C65.6552 28.0256 66.9806 32.9276 66.9945 37.9208C67.0084 42.9141 65.7102 47.8233 63.2298 52.157C60.7495 56.4906 57.1741 60.0966 52.8618 62.6137C48.5494 65.1309 43.6514 66.4709 38.6582 66.4995C33.6651 66.5282 28.752 65.2445 24.411 62.777C20.07 60.3096 16.4535 56.7449 13.9236 52.44" stroke="black" stroke-width="2" stroke-linecap="round" stroke-linejoin="round"/>
</g>
</svg>
