<svg width="77" height="76" viewBox="0 0 77 76" fill="none" xmlns="http://www.w3.org/2000/svg">
<g id="Crown">
<path id="Vector" d="M13.8975 58.1925C13.9715 58.5047 14.108 58.7987 14.2986 59.0568C14.4892 59.3149 14.7301 59.5317 15.0067 59.6943C15.2833 59.8569 15.5899 59.9618 15.9081 60.0028C16.2264 60.0438 16.5496 60.02 16.8584 59.9328C31.0161 56.0238 45.9683 56.0224 60.1267 59.9287C60.4354 60.0158 60.7585 60.0396 61.0766 59.9986C61.3947 59.9576 61.7013 59.8527 61.9778 59.6902C62.2543 59.5277 62.4951 59.311 62.6857 59.0531C62.8763 58.7951 63.0128 58.5013 63.087 58.1892L70.6539 26.0326C70.7552 25.6022 70.7343 25.1519 70.5936 24.7327C70.4528 24.3135 70.1978 23.9418 69.8572 23.6597C69.5167 23.3776 69.1041 23.1961 68.666 23.1358C68.2279 23.0755 67.7816 23.1387 67.3775 23.3183L52.3604 29.9926C51.8182 30.2336 51.2053 30.2629 50.6426 30.0746C50.0798 29.8864 49.6079 29.4944 49.3197 28.9757L40.576 13.237C40.3704 12.8668 40.0694 12.5583 39.7044 12.3435C39.3393 12.1287 38.9235 12.0154 38.4999 12.0154C38.0764 12.0154 37.6605 12.1287 37.2955 12.3435C36.9305 12.5583 36.6295 12.8668 36.4238 13.237L27.6801 28.9757C27.392 29.4944 26.92 29.8864 26.3573 30.0746C25.7945 30.2628 25.1817 30.2336 24.6394 29.9926L9.6201 23.3173C9.21605 23.1377 8.76989 23.0745 8.33185 23.1348C7.89382 23.195 7.4813 23.3764 7.14075 23.6584C6.8002 23.9404 6.54513 24.3119 6.40427 24.731C6.2634 25.1501 6.24234 25.6002 6.34344 26.0307L13.8975 58.1925Z" stroke="black" stroke-width="2" stroke-linecap="round" stroke-linejoin="round"/>
<path id="Vector_2" d="M29 47.9984C35.3159 47.3339 41.6841 47.3339 48 47.9984" stroke="black" stroke-width="2" stroke-linecap="round" stroke-linejoin="round"/>
</g>
</svg>
