<svg width="77" height="76" viewBox="0 0 77 76" fill="none" xmlns="http://www.w3.org/2000/svg">
<g id="Star">
<path id="Vector" d="M39.8095 56.6237L54.7826 66.11C56.6965 67.3226 59.0728 65.5192 58.5048 63.285L54.1788 46.2674C54.057 45.7935 54.0714 45.2947 54.2204 44.8286C54.3694 44.3624 54.647 43.9478 55.0212 43.6324L68.4481 32.457C70.2123 30.9886 69.3017 28.0607 67.035 27.9136L49.5004 26.7756C49.0281 26.7418 48.5752 26.5746 48.1942 26.2934C47.8133 26.0122 47.5201 25.6285 47.3487 25.1871L40.8091 8.71856C40.6313 8.25004 40.3152 7.84669 39.9028 7.56206C39.4904 7.27744 39.0011 7.125 38.5 7.125C37.9989 7.125 37.5097 7.27744 37.0972 7.56206C36.6848 7.84669 36.3687 8.25004 36.191 8.71856L29.6513 25.1871C29.48 25.6285 29.1867 26.0122 28.8058 26.2934C28.4249 26.5746 27.9719 26.7418 27.4996 26.7756L9.96498 27.9136C7.69832 28.0607 6.78772 30.9886 8.55196 32.457L21.9788 43.6324C22.353 43.9478 22.6306 44.3624 22.7796 44.8286C22.9286 45.2947 22.943 45.7935 22.8212 46.2674L18.8093 62.0494C18.1278 64.7303 20.9793 66.8945 23.276 65.4394L37.1905 56.6237C37.5818 56.3746 38.0361 56.2423 38.5 56.2423C38.9639 56.2423 39.4182 56.3746 39.8095 56.6237V56.6237Z" stroke="black" stroke-width="2" stroke-linecap="round" stroke-linejoin="round"/>
</g>
</svg>
