<svg width="32" height="32" viewBox="0 0 32 32" fill="none" xmlns="http://www.w3.org/2000/svg">
<g id="TwitterLogo">
<path id="Vector" d="M5.99994 25C5.99994 25 10.9999 24 11.9999 21C11.9999 21 3.99994 18 5.99994 7C5.99994 7 9.99994 12 15.9999 13V11.0004C16.0001 9.85156 16.3957 8.73783 17.1203 7.84641C17.845 6.95498 18.8544 6.34023 19.979 6.10551C21.1036 5.87078 22.2747 6.0304 23.2954 6.55752C24.3161 7.08464 25.1242 7.94712 25.5839 8.99996L29.9999 9L25.9999 13C25.9999 20 20.9999 27 11.9999 27C7.99994 27 5.99994 25 5.99994 25Z" stroke="white" stroke-width="2" stroke-linecap="round" stroke-linejoin="round"/>
</g>
</svg>
